#Comment line ignore any data following # character 
#Hierarchical Translation and Rotation (.htr) file 
[Header]	
#Header keywords are followed by a single value 
FileType HTR		#Single word string
DataType HTRS		#Translation followed by rotation and scale data
FileVersion 1		#integer
NumSegments 84		#integer
NumFrames 2		#integer
DataFrameRate 30		#integer, data frame rate in this file
EulerRotationOrder ZYX
CalibrationUnits mm
RotationUnits Degrees
GlobalAxisofGravity Y
BoneLengthAxis Y
ScaleFactor 1.00
[SegmentNames&Hierarchy]
#CHILD	PARENT
MASTER GLOBAL
root MASTER
chest root
L_mid_tent01 root
R_mid_tent01 root
spine01 root
Bip01_Neck chest
L_humerus chest
R_humerus chest
weapon_bone chest
Bip01_Head Bip01_Neck
eye_left_bone Bip01_Head
eye_right_bone Bip01_Head
L_forearm L_humerus
L_front_hand L_forearm
L_weapon_bone L_forearm
L_front_hand01_01 L_front_hand
L_front_hand02_01 L_front_hand
L_front_hand03_01 L_front_hand
L_front_hand01_02 L_front_hand01_01
L_front_hand02_02 L_front_hand02_01
L_front_hand03_02 L_front_hand03_01
R_forearm R_humerus
R_front_hand R_forearm
R_weapon_bone R_forearm
R_front_hand01_01 R_front_hand
R_front_hand02_01 R_front_hand
R_front_hand03_01 R_front_hand
R_front_hand01_02 R_front_hand01_01
R_front_hand02_02 R_front_hand02_01
R_front_hand03_02 R_front_hand03_01
null_rope01_connect L_mid_tent01
Rope1_Seg01 null_rope01_connect
Rope1_Seg02 Rope1_Seg01
Rope1_Seg03 Rope1_Seg02
Rope1_Seg04 Rope1_Seg03
Rope1_Seg05 Rope1_Seg04
Rope1_Seg06 Rope1_Seg05
Rope1_Seg07 Rope1_Seg06
Rope1_Seg09 Rope1_Seg07
L_mid_hand01 Rope1_Seg09
L_mid_hand02 Rope1_Seg09
L_mid_hand03 Rope1_Seg09
null_rope02_connect R_mid_tent01
Rope2_Seg01 null_rope02_connect
Rope2_Seg02 Rope2_Seg01
Rope2_Seg03 Rope2_Seg02
Rope2_Seg04 Rope2_Seg03
Rope2_Seg05 Rope2_Seg04
Rope2_Seg06 Rope2_Seg05
Rope2_Seg07 Rope2_Seg06
Rope2_Seg09 Rope2_Seg07
R_mid_hand01 Rope2_Seg09
R_mid_hand02 Rope2_Seg09
R_mid_hand03 Rope2_Seg09
spine02 spine01
spine03 spine02
pelvis spine03
null_rope03_connect pelvis
null_rope04_connect pelvis
Rope3_Seg01 null_rope03_connect
Rope3_Seg02 Rope3_Seg01
Rope3_Seg03 Rope3_Seg02
Rope3_Seg04 Rope3_Seg03
Rope3_Seg05 Rope3_Seg04
Rope3_Seg06 Rope3_Seg05
Rope3_Seg07 Rope3_Seg06
Rope3_Seg08 Rope3_Seg07
Rope3_Seg09 Rope3_Seg08
R_rear_hand01 Rope3_Seg09
R_rear_hand02 Rope3_Seg09
R_rear_hand03 Rope3_Seg09
Rope4_Seg01 null_rope04_connect
Rope4_Seg02 Rope4_Seg01
Rope4_Seg03 Rope4_Seg02
Rope4_Seg04 Rope4_Seg03
Rope4_Seg05 Rope4_Seg04
Rope4_Seg06 Rope4_Seg05
Rope4_Seg07 Rope4_Seg06
Rope4_Seg08 Rope4_Seg07
Rope4_Seg09 Rope4_Seg08
L_rear_hand01 Rope4_Seg09
L_rear_hand02 Rope4_Seg09
L_rear_hand03 Rope4_Seg09
[BasePosition]
#SegmentName Tx, Ty, Tz, Rx, Ry, Rz, BoneLength
MASTER 0.000000 0.000000 0.000000 -90.000000 0.000000 0.000000 10.000000 
root 0.000000 0.000000 0.000000 0.000000 0.000000 0.000000 10.000000 
chest 0.000000 0.000000 0.000000 0.000000 0.000000 0.000000 10.000000 
L_mid_tent01 0.000000 0.000000 0.000000 0.000000 0.000000 0.000000 10.000000 
R_mid_tent01 0.000000 0.000000 0.000000 0.000000 0.000000 0.000000 10.000000 
spine01 0.000000 0.000000 0.000000 0.000000 0.000000 0.000000 10.000000 
Bip01_Neck 0.000000 0.000000 0.000000 0.000000 0.000000 0.000000 10.000000 
L_humerus 0.000000 0.000000 0.000000 0.000000 0.000000 0.000000 10.000000 
R_humerus 0.000000 0.000000 0.000000 0.000000 0.000000 0.000000 10.000000 
weapon_bone 0.000000 0.000000 0.000000 0.000000 0.000000 0.000000 10.000000 
Bip01_Head 0.000000 0.000000 0.000000 0.000000 0.000000 0.000000 10.000000 
eye_left_bone 0.000000 0.000000 0.000000 0.000000 0.000000 0.000000 10.000000 
eye_right_bone 0.000000 0.000000 0.000000 0.000000 0.000000 0.000000 10.000000 
L_forearm 0.000000 0.000000 0.000000 0.000000 0.000000 0.000000 10.000000 
L_front_hand 0.000000 0.000000 0.000000 0.000000 0.000000 0.000000 10.000000 
L_weapon_bone 0.000000 0.000000 0.000000 0.000000 0.000000 0.000000 10.000000 
L_front_hand01_01 0.000000 0.000000 0.000000 0.000000 0.000000 0.000000 10.000000 
L_front_hand02_01 0.000000 0.000000 0.000000 0.000000 0.000000 0.000000 10.000000 
L_front_hand03_01 0.000000 0.000000 0.000000 0.000000 0.000000 0.000000 10.000000 
L_front_hand01_02 0.000000 0.000000 0.000000 0.000000 0.000000 0.000000 10.000000 
L_front_hand02_02 0.000000 0.000000 0.000000 0.000000 0.000000 0.000000 10.000000 
L_front_hand03_02 0.000000 0.000000 0.000000 0.000000 0.000000 0.000000 10.000000 
R_forearm 0.000000 0.000000 0.000000 0.000000 0.000000 0.000000 10.000000 
R_front_hand 0.000000 0.000000 0.000000 0.000000 0.000000 0.000000 10.000000 
R_weapon_bone 0.000000 0.000000 0.000000 0.000000 0.000000 0.000000 10.000000 
R_front_hand01_01 0.000000 0.000000 0.000000 0.000000 0.000000 0.000000 10.000000 
R_front_hand02_01 0.000000 0.000000 0.000000 0.000000 0.000000 0.000000 10.000000 
R_front_hand03_01 0.000000 0.000000 0.000000 0.000000 0.000000 0.000000 10.000000 
R_front_hand01_02 0.000000 0.000000 0.000000 0.000000 0.000000 0.000000 10.000000 
R_front_hand02_02 0.000000 0.000000 0.000000 0.000000 0.000000 0.000000 10.000000 
R_front_hand03_02 0.000000 0.000000 0.000000 0.000000 0.000000 0.000000 10.000000 
null_rope01_connect 0.000000 0.000000 0.000000 0.000000 0.000000 0.000000 10.000000 
Rope1_Seg01 0.000000 0.000000 0.000000 0.000000 0.000000 0.000000 10.000000 
Rope1_Seg02 0.000000 0.000000 0.000000 0.000000 0.000000 0.000000 10.000000 
Rope1_Seg03 0.000000 0.000000 0.000000 0.000000 0.000000 0.000000 10.000000 
Rope1_Seg04 0.000000 0.000000 0.000000 0.000000 0.000000 0.000000 10.000000 
Rope1_Seg05 0.000000 0.000000 0.000000 0.000000 0.000000 0.000000 10.000000 
Rope1_Seg06 0.000000 0.000000 0.000000 0.000000 0.000000 0.000000 10.000000 
Rope1_Seg07 0.000000 0.000000 0.000000 0.000000 0.000000 0.000000 10.000000 
Rope1_Seg09 0.000000 0.000000 0.000000 0.000000 0.000000 0.000000 10.000000 
L_mid_hand01 0.000000 0.000000 0.000000 0.000000 0.000000 0.000000 10.000000 
L_mid_hand02 0.000000 0.000000 0.000000 0.000000 0.000000 0.000000 10.000000 
L_mid_hand03 0.000000 0.000000 0.000000 0.000000 0.000000 0.000000 10.000000 
null_rope02_connect 0.000000 0.000000 0.000000 0.000000 0.000000 0.000000 10.000000 
Rope2_Seg01 0.000000 0.000000 0.000000 0.000000 0.000000 0.000000 10.000000 
Rope2_Seg02 0.000000 0.000000 0.000000 0.000000 0.000000 0.000000 10.000000 
Rope2_Seg03 0.000000 0.000000 0.000000 0.000000 0.000000 0.000000 10.000000 
Rope2_Seg04 0.000000 0.000000 0.000000 0.000000 0.000000 0.000000 10.000000 
Rope2_Seg05 0.000000 0.000000 0.000000 0.000000 0.000000 0.000000 10.000000 
Rope2_Seg06 0.000000 0.000000 0.000000 0.000000 0.000000 0.000000 10.000000 
Rope2_Seg07 0.000000 0.000000 0.000000 0.000000 0.000000 0.000000 10.000000 
Rope2_Seg09 0.000000 0.000000 0.000000 0.000000 0.000000 0.000000 10.000000 
R_mid_hand01 0.000000 0.000000 0.000000 0.000000 0.000000 0.000000 10.000000 
R_mid_hand02 0.000000 0.000000 0.000000 0.000000 0.000000 0.000000 10.000000 
R_mid_hand03 0.000000 0.000000 0.000000 0.000000 0.000000 0.000000 10.000000 
spine02 0.000000 0.000000 0.000000 0.000000 0.000000 0.000000 10.000000 
spine03 0.000000 0.000000 0.000000 0.000000 0.000000 0.000000 10.000000 
pelvis 0.000000 0.000000 0.000000 0.000000 0.000000 0.000000 10.000000 
null_rope03_connect 0.000000 0.000000 0.000000 0.000000 0.000000 0.000000 10.000000 
null_rope04_connect 0.000000 0.000000 0.000000 0.000000 0.000000 0.000000 10.000000 
Rope3_Seg01 0.000000 0.000000 0.000000 0.000000 0.000000 0.000000 10.000000 
Rope3_Seg02 0.000000 0.000000 0.000000 0.000000 0.000000 0.000000 10.000000 
Rope3_Seg03 0.000000 0.000000 0.000000 0.000000 0.000000 0.000000 10.000000 
Rope3_Seg04 0.000000 0.000000 0.000000 0.000000 0.000000 0.000000 10.000000 
Rope3_Seg05 0.000000 0.000000 0.000000 0.000000 0.000000 0.000000 10.000000 
Rope3_Seg06 0.000000 0.000000 0.000000 0.000000 0.000000 0.000000 10.000000 
Rope3_Seg07 0.000000 0.000000 0.000000 0.000000 0.000000 0.000000 10.000000 
Rope3_Seg08 0.000000 0.000000 0.000000 0.000000 0.000000 0.000000 10.000000 
Rope3_Seg09 0.000000 0.000000 0.000000 0.000000 0.000000 0.000000 10.000000 
R_rear_hand01 0.000000 0.000000 0.000000 0.000000 0.000000 0.000000 10.000000 
R_rear_hand02 0.000000 0.000000 0.000000 0.000000 0.000000 0.000000 10.000000 
R_rear_hand03 0.000000 0.000000 0.000000 0.000000 0.000000 0.000000 10.000000 
Rope4_Seg01 0.000000 0.000000 0.000000 0.000000 0.000000 0.000000 10.000000 
Rope4_Seg02 0.000000 0.000000 0.000000 0.000000 0.000000 0.000000 10.000000 
Rope4_Seg03 0.000000 0.000000 0.000000 0.000000 0.000000 0.000000 10.000000 
Rope4_Seg04 0.000000 0.000000 0.000000 0.000000 0.000000 0.000000 10.000000 
Rope4_Seg05 0.000000 0.000000 0.000000 0.000000 0.000000 0.000000 10.000000 
Rope4_Seg06 0.000000 0.000000 0.000000 0.000000 0.000000 0.000000 10.000000 
Rope4_Seg07 0.000000 0.000000 0.000000 0.000000 0.000000 0.000000 10.000000 
Rope4_Seg08 0.000000 0.000000 0.000000 0.000000 0.000000 0.000000 10.000000 
Rope4_Seg09 0.000000 0.000000 0.000000 0.000000 0.000000 0.000000 10.000000 
L_rear_hand01 0.000000 0.000000 0.000000 0.000000 0.000000 0.000000 10.000000 
L_rear_hand02 0.000000 0.000000 0.000000 0.000000 0.000000 0.000000 10.000000 
L_rear_hand03 0.000000 0.000000 0.000000 0.000000 0.000000 0.000000 10.000000 
#Beginning of Data. Separated by tabs
#Fr	Tx	Ty	Tz	Rx	Ry	Rz	SF
[MASTER]
24 0.000000 0.000000 0.000000 0.001660 0.001660 0.001660 0.000000
25 0.000000 0.000000 0.000000 0.001660 0.001660 0.001660 0.000000
[root]
24 440.897766 -8.315865 1461.546997 -79.912369 -21.920462 -85.747704 1526.623535
25 378.835449 -3.217804 1457.867920 -78.666618 -19.824036 -85.391983 1506.288574
[chest]
24 -84.512650 -34.090519 0.000000 3.553472 1.877125 170.822144 91.129311
25 -84.512650 -34.090519 0.000000 3.147912 1.753557 170.182602 91.129311
[L_mid_tent01]
24 27.299154 22.178970 -249.918594 -13.919256 27.328594 39.436539 252.381577
25 27.299149 22.178993 -249.918610 -14.739331 26.271952 37.217918 252.381592
[R_mid_tent01]
24 23.228794 24.509907 226.238495 178.156265 -26.343527 55.421604 228.744751
25 23.228794 24.509907 226.238495 179.628967 -26.015163 52.857937 228.744751
[spine01]
24 -0.361383 -0.195265 0.000000 0.001932 0.001333 20.796291 0.410763
25 -0.361383 -0.195265 0.000000 0.001933 0.001331 20.892879 0.410763
[Bip01_Neck]
24 165.484543 71.581718 0.000119 176.643677 -1.657967 43.431911 180.302734
25 165.484543 71.581718 0.000119 176.643677 -1.657967 43.431911 180.302734
[L_humerus]
24 -13.983130 -135.272980 -120.471481 156.301514 54.786308 -154.887222 181.680161
25 -13.983130 -135.272980 -120.471481 152.699509 58.618336 -155.191162 181.680161
[R_humerus]
24 -13.983309 -135.273102 125.287651 -160.533813 -46.270500 -137.686249 184.909012
25 -13.983309 -135.273102 125.287651 -158.748108 -51.032059 -136.613647 184.909012
[weapon_bone]
24 235.964890 -300.705902 0.000000 0.000000 -89.951546 -128.212341 382.234833
25 235.964890 -300.705902 0.000000 0.000000 -89.951546 -128.212341 382.234833
[Bip01_Head]
24 213.444183 185.715515 11.776929 4.354132 4.592032 -43.234280 283.173737
25 213.444183 185.715515 11.776930 4.678062 3.663836 -43.581684 283.173737
[eye_left_bone]
24 -24.626970 125.451866 -64.772606 0.000000 -90.000000 -99.840431 143.318359
25 -24.626970 125.451866 -64.772606 0.000000 -90.000000 -99.840431 143.318359
[eye_right_bone]
24 -24.626970 125.451866 64.327362 0.000000 -89.965736 80.156380 143.117676
25 -24.626970 125.451866 64.327362 0.000000 -89.965736 80.156380 143.117676
[L_forearm]
24 322.776093 0.000000 -0.000119 0.000351 -0.002321 -107.186813 322.776093
25 322.776093 0.000000 -0.000119 0.000410 -0.002311 -110.097198 322.776093
[L_front_hand]
24 241.149185 -0.042021 -3.300071 149.893951 -1.837326 -27.423067 241.171753
25 241.149185 -0.042021 -3.300071 149.893951 -1.837326 -27.423067 241.171753
[L_weapon_bone]
24 156.183838 0.000000 0.000000 0.000014 0.000007 0.000001 156.183838
25 156.183838 0.000000 0.000000 0.000014 0.000007 0.000001 156.183838
[L_front_hand01_01]
24 86.095154 20.947098 -0.655860 -0.366594 -0.477154 75.385574 88.609184
25 86.095154 20.947098 -0.655860 -0.366594 -0.477154 75.385574 88.609184
[L_front_hand02_01]
24 86.935165 -11.437475 24.513514 154.399796 -59.883835 -61.369587 91.046425
25 86.935165 -11.437475 24.513514 154.399796 -59.883835 -61.369587 91.046425
[L_front_hand03_01]
24 86.637497 -14.123976 -20.424902 -153.913849 58.118122 -62.702866 90.126129
25 86.637497 -14.123976 -20.424902 -153.913849 58.118122 -62.702866 90.126129
[L_front_hand01_02]
24 71.020905 -0.000179 0.000030 0.000334 -0.002323 -106.379684 71.020905
25 71.020905 -0.000179 0.000030 0.000334 -0.002323 -106.379684 71.020905
[L_front_hand02_02]
24 71.020927 -0.000119 0.000060 0.000334 -0.002323 -106.379684 71.020927
25 71.020927 -0.000119 0.000060 0.000334 -0.002323 -106.379684 71.020927
[L_front_hand03_02]
24 71.020905 -0.000060 0.000060 0.000334 -0.002323 -106.379684 71.020905
25 71.020905 -0.000060 0.000060 0.000334 -0.002323 -106.379684 71.020905
[R_forearm]
24 322.776428 -0.000060 0.000030 0.212469 0.020774 -96.796532 322.776428
25 322.776428 -0.000060 0.000030 0.211029 0.034700 -100.558556 322.776428
[R_front_hand]
24 238.847015 -0.006795 2.210259 -8.879459 -10.642942 -26.315100 238.857239
25 238.847015 -0.006795 2.210259 -8.879457 -10.642941 -26.315098 238.857239
[R_weapon_bone]
24 155.664093 0.002503 -0.000030 0.003487 0.001180 -90.988930 155.664078
25 155.664093 0.002503 -0.000030 0.003487 0.001180 -90.988930 155.664078
[R_front_hand01_01]
24 87.624611 14.231146 22.918642 -154.633499 -59.950619 61.746044 91.683487
25 87.624611 14.231146 22.918642 -154.633499 -59.950619 61.746044 91.683487
[R_front_hand02_01]
24 89.356956 14.367283 -19.491137 154.602661 58.302849 63.744389 92.579636
25 89.356956 14.367283 -19.491137 154.602661 58.302849 63.744389 92.579636
[R_front_hand03_01]
24 87.286232 -22.307278 -0.143439 0.162155 -0.423168 -75.767921 90.091743
25 87.286232 -22.307278 -0.143439 0.162155 -0.423168 -75.767906 90.091743
[R_front_hand01_02]
24 71.020905 0.000060 0.000119 0.002323 -0.000334 106.381714 71.020905
25 71.020905 0.000060 0.000119 0.002323 -0.000334 106.381714 71.020905
[R_front_hand02_02]
24 71.020844 -0.000030 -0.000119 0.002323 -0.000334 106.381714 71.020836
25 71.020844 -0.000030 -0.000119 0.002323 -0.000334 106.381714 71.020836
[R_front_hand03_02]
24 71.020905 0.000000 0.000030 0.002323 -0.000334 106.381714 71.020905
25 71.020905 0.000000 0.000030 0.002323 -0.000334 106.381714 71.020905
[null_rope01_connect]
24 328.732483 0.000000 -0.000238 -134.099258 -71.860100 -157.352295 328.732483
25 328.732483 0.000000 -0.000238 -135.965347 -73.690750 -155.512466 328.732483
[Rope1_Seg01]
24 0.000035 -0.000048 0.000097 -80.288086 51.213535 -90.512085 0.000114
25 0.000038 -0.000048 0.000102 -74.470505 48.441715 -88.547470 0.000119
[Rope1_Seg02]
24 139.999863 -0.000179 0.000000 4.733873 2.172972 -6.581012 139.999863
25 139.999863 -0.000179 0.000000 12.672341 -2.174314 -8.658435 139.999863
[Rope1_Seg03]
24 139.999924 0.000060 -0.000060 10.762285 -2.059389 -5.679525 139.999924
25 139.999924 0.000060 -0.000060 14.820339 -4.764812 -6.845939 139.999924
[Rope1_Seg04]
24 139.999924 -0.000060 -0.000119 -19.507378 9.470356 1.713801 139.999924
25 139.999924 -0.000060 -0.000119 -13.115910 6.815720 2.843361 139.999924
[Rope1_Seg05]
24 139.999832 0.000119 -0.000060 -27.612719 9.977452 7.435894 139.999832
25 139.999832 0.000119 -0.000060 -22.531597 9.829947 8.351473 139.999832
[Rope1_Seg06]
24 139.999954 0.000119 -0.000060 -10.822181 2.815000 5.178415 139.999954
25 139.999954 0.000119 -0.000060 -9.453695 3.048933 5.659664 139.999954
[Rope1_Seg07]
24 139.999985 0.000060 0.000000 -6.131927 1.212370 3.820662 139.999985
25 139.999985 0.000060 0.000000 -5.667193 1.468672 4.307732 139.999985
[Rope1_Seg09]
24 121.602913 0.000119 -0.000089 -89.793175 -1.359789 0.847147 121.602913
25 121.602913 0.000119 -0.000089 -89.793175 -1.359789 0.847147 121.602913
[L_mid_hand01]
24 103.859421 1.038730 8.195221 109.056198 -40.604698 -13.201401 104.187431
25 103.859421 1.038730 8.195221 109.056198 -40.604698 -13.201401 104.187431
[L_mid_hand02]
24 105.572853 -4.139662 -10.864139 -146.713593 31.476528 -37.902313 106.211075
25 105.572853 -4.139662 -10.864139 -146.713593 31.476534 -37.902313 106.211075
[L_mid_hand03]
24 104.641464 17.579376 -3.913581 -14.267233 12.322316 43.898396 106.179977
25 104.641464 17.579376 -3.913581 -14.267233 12.322316 43.898396 106.179977
[null_rope02_connect]
24 328.732849 0.000179 -0.000119 -125.445061 51.801308 -3.043010 328.732849
25 328.732849 0.000179 -0.000119 -128.610245 50.905750 -6.304873 328.732849
[Rope2_Seg01]
24 0.000047 0.000101 0.000041 21.332809 5.501980 -41.864590 0.000119
25 0.000051 0.000102 0.000038 19.275526 4.206055 -41.241493 0.000120
[Rope2_Seg02]
24 139.999741 -0.000060 -0.000119 10.434017 2.164513 -3.064527 139.999756
25 139.999741 -0.000060 -0.000119 8.286856 2.523592 -2.970351 139.999756
[Rope2_Seg03]
24 140.000107 0.000030 0.000000 19.801350 1.553036 -3.649320 140.000107
25 140.000107 0.000030 0.000000 16.374304 2.085433 -3.536990 140.000107
[Rope2_Seg04]
24 139.999802 0.000000 -0.000060 51.164616 -0.324326 -7.055526 139.999802
25 139.999802 0.000000 -0.000060 52.158283 1.121474 -6.844084 139.999802
[Rope2_Seg05]
24 139.999985 -0.000060 0.000119 -5.974963 1.605330 0.076371 139.999985
25 139.999985 -0.000060 0.000119 -7.330193 1.327541 0.273471 139.999985
[Rope2_Seg06]
24 139.999893 -0.000030 -0.000119 -72.100822 7.248138 4.580646 139.999893
25 139.999893 -0.000030 -0.000119 -64.056351 5.475865 5.462962 139.999893
[Rope2_Seg07]
24 139.999893 0.000060 -0.000060 -20.064951 -1.125829 4.677240 139.999893
25 139.999893 0.000060 -0.000060 -15.970340 -1.285408 3.968447 139.999893
[Rope2_Seg09]
24 121.338966 0.000089 -0.000060 33.793236 -1.359788 -0.847141 121.338966
25 121.338966 0.000089 -0.000060 33.793236 -1.359788 -0.847141 121.338966
[R_mid_hand01]
24 104.680779 11.144459 -10.335981 -37.204079 31.906813 37.576260 105.778534
25 104.680779 11.144459 -10.335981 -37.204079 31.906813 37.576260 105.778534
[R_mid_hand02]
24 104.070427 2.443552 8.231699 70.367462 -42.427391 14.067809 104.424065
25 104.070427 2.443552 8.231699 70.367462 -42.427391 14.067809 104.424065
[R_mid_hand03]
24 106.028137 -11.221827 -5.996406 -169.893616 12.226661 -47.211018 106.788818
25 106.028137 -11.221827 -5.996406 -169.893616 12.226661 -47.211018 106.788818
[spine02]
24 129.756927 0.001550 0.000119 0.084294 -4.060470 -9.042631 129.756927
25 129.756927 0.001550 0.000119 0.105494 -4.060113 -9.342229 129.756927
[spine03]
24 78.614059 0.082572 -4.898985 1.732855 3.907810 14.058960 78.766602
25 78.614067 0.082512 -4.898987 1.745443 3.902237 14.245249 78.766609
[pelvis]
24 169.435242 0.051022 0.000000 -0.042873 -0.184897 9.213442 169.435257
25 169.435242 0.051022 0.000000 -0.044101 -0.184526 9.590928 169.435257
[null_rope03_connect]
24 -1.257226 -2.466202 137.391083 38.597992 -76.925247 37.922199 137.418976
25 -1.257226 -2.466202 137.391083 36.470928 -75.629349 37.505478 137.418976
[null_rope04_connect]
24 -1.259640 -2.480268 -137.844437 38.597992 -76.925247 37.922199 137.872513
25 -1.259640 -2.480268 -137.844437 36.470928 -75.629349 37.505478 137.872513
[Rope3_Seg01]
24 0.000010 0.000038 -0.000114 -130.928833 -16.139944 -78.888649 0.000121
25 0.000010 0.000038 -0.000114 -130.679031 -11.194895 -79.029778 0.000121
[Rope3_Seg02]
24 139.999924 -0.000119 0.000060 0.064752 -1.258376 -2.590966 139.999924
25 139.999924 -0.000119 0.000060 0.069895 -1.213693 -2.704770 139.999924
[Rope3_Seg03]
24 139.999924 -0.000119 0.000119 0.122006 -1.569289 -1.924160 139.999924
25 139.999924 -0.000119 0.000119 0.084361 -1.515223 -2.512289 139.999924
[Rope3_Seg04]
24 139.999924 0.000119 0.000000 0.568360 -3.299178 4.736530 139.999924
25 139.999924 0.000119 0.000000 0.528054 -3.826904 3.804960 139.999924
[Rope3_Seg05]
24 139.999924 -0.000238 0.000060 -2.053426 1.024141 -14.963353 139.999924
25 139.999924 -0.000238 0.000060 -1.854364 1.280195 -13.584714 139.999924
[Rope3_Seg06]
24 139.999893 -0.000119 -0.000060 -12.023653 5.023812 -27.291878 139.999893
25 139.999893 -0.000119 -0.000060 -10.234085 5.970900 -24.362381 139.999893
[Rope3_Seg07]
24 139.999771 0.000060 -0.000119 -8.602818 4.237449 -11.461859 139.999771
25 139.999771 0.000060 -0.000119 -6.715134 4.103207 -10.380260 139.999771
[Rope3_Seg08]
24 139.999985 -0.000060 0.000000 -5.005070 2.903331 -5.391074 139.999985
25 139.999985 -0.000060 0.000000 -3.813208 2.622969 -5.031972 139.999985
[Rope3_Seg09]
24 90.185997 -0.000179 -0.000060 89.793228 -1.359877 -0.847183 90.185997
25 90.185997 -0.000179 -0.000060 89.793228 -1.359877 -0.847183 90.185997
[R_rear_hand01]
24 103.366196 -6.073594 -10.757982 -164.755127 19.627697 -40.352161 104.101845
25 103.366196 -6.073594 -10.757982 -164.755127 19.627697 -40.352161 104.101845
[R_rear_hand02]
24 100.509819 12.039542 -7.992327 -30.792652 24.782448 38.141541 101.543350
25 100.509819 12.039542 -7.992327 -30.792652 24.782448 38.141541 101.543350
[R_rear_hand03]
24 101.539970 5.215704 5.435467 82.448349 -41.048256 8.840378 101.819031
25 101.539970 5.215704 5.435467 82.448349 -41.048256 8.840378 101.819031
[Rope4_Seg01]
24 -0.000013 -0.000028 -0.000153 50.900421 -13.323630 -109.850060 0.000156
25 -0.000013 -0.000025 -0.000153 49.441837 -7.453815 -105.177834 0.000155
[Rope4_Seg02]
24 139.999985 0.000060 0.000119 1.766687 -8.854032 5.617169 139.999985
25 139.999985 0.000060 0.000119 0.677273 -7.356913 4.687467 139.999985
[Rope4_Seg03]
24 139.999924 0.000000 -0.000238 4.133935 -10.619840 12.157275 139.999924
25 139.999924 0.000000 -0.000238 2.027088 -10.238581 10.198812 139.999924
[Rope4_Seg04]
24 139.999985 0.000000 0.000119 6.012529 -10.971421 15.190179 139.999985
25 139.999985 0.000000 0.000119 4.323040 -13.020619 17.398790 139.999985
[Rope4_Seg05]
24 139.999802 -0.000060 -0.000119 -3.262614 -23.417543 -20.620419 139.999802
25 139.999802 -0.000060 -0.000119 -4.824022 -20.490610 -24.209774 139.999802
[Rope4_Seg06]
24 139.999924 0.000000 0.000060 -18.484201 -12.035993 -15.098213 139.999924
25 139.999924 0.000000 0.000060 -15.991372 -8.381657 -16.216152 139.999924
[Rope4_Seg07]
24 139.999802 0.000000 0.000000 -16.778103 -3.483099 -7.147408 139.999802
25 139.999802 0.000000 0.000000 -10.384142 -2.289529 -7.027078 139.999802
[Rope4_Seg08]
24 139.999924 0.000000 0.000119 -15.052834 -0.662627 -4.157166 139.999924
25 139.999924 0.000000 0.000119 -8.564725 -0.516764 -3.873510 139.999924
[Rope4_Seg09]
24 90.185791 0.000060 0.000060 -135.617828 2.228885 0.850567 90.185791
25 90.185791 0.000060 0.000060 -135.617828 2.228885 0.850567 90.185791
[L_rear_hand01]
24 101.696655 -8.392275 -7.654577 -31.684452 -23.583008 144.025742 102.329041
25 101.696655 -8.392275 -7.654577 -31.684452 -23.583008 144.025742 102.329041
[L_rear_hand02]
24 102.726799 -1.568258 5.773216 82.701553 38.753956 171.553619 102.900848
25 102.726799 -1.568258 5.773216 82.701553 38.753956 171.553619 102.900848
[L_rear_hand03]
24 104.552910 9.721220 -10.420293 -163.975403 -19.004421 -142.009338 105.519653
25 104.552910 9.721220 -10.420293 -163.975403 -19.004421 -142.009338 105.519653
